<svg xmlns="http://www.w3.org/2000/svg" viewBox="0 0 512 512" role="img" aria-label="Big Screen Bible">
  <defs>
    <linearGradient id="iconBg" x1="96" y1="62" x2="416" y2="450" gradientUnits="userSpaceOnUse">
      <stop offset="0" stop-color="#1f2d36"/>
      <stop offset="0.55" stop-color="#111a22"/>
      <stop offset="1" stop-color="#0b1117"/>
    </linearGradient>
    <linearGradient id="iconGold" x1="124" y1="124" x2="388" y2="402" gradientUnits="userSpaceOnUse">
      <stop offset="0" stop-color="#e2ad34"/>
      <stop offset="0.45" stop-color="#a86805"/>
      <stop offset="1" stop-color="#d79519"/>
    </linearGradient>
    <filter id="iconShadow" x="-10%" y="-10%" width="120%" height="124%" color-interpolation-filters="sRGB">
      <feDropShadow dx="0" dy="8" stdDeviation="10" flood-color="#000" flood-opacity="0.35"/>
    </filter>
  </defs>

  <rect width="512" height="512" rx="94" fill="url(#iconBg)"/>

  <g filter="url(#iconShadow)" fill="none" stroke="url(#iconGold)" stroke-linecap="round" stroke-linejoin="round">
    <path d="M124 132h264a14 14 0 0 1 14 14v164" stroke-width="16"/>
    <path d="M124 310V146a14 14 0 0 1 14-14" stroke-width="16"/>

    <path d="M155 293c45-11 85-9 116 16v116c-38-28-88-30-148-14z" fill="url(#iconGold)" stroke-width="0"/>
    <path d="M357 293c-45-11-85-9-116 16v116c38-28 88-30 148-14z" fill="url(#iconGold)" stroke-width="0"/>
    <path d="M155 293c45-11 85-9 116 16 31-25 71-27 116-16" stroke-width="13"/>
    <path d="M123 411c60-16 110-14 148 24 38-38 88-40 148-24" stroke-width="13"/>
    <path d="M256 309v126" stroke-width="15"/>
  </g>
</svg>
