<svg xmlns="http://www.w3.org/2000/svg" viewBox="0 0 760 178" role="img" aria-labelledby="brandTitle brandDesc">
  <title id="brandTitle">Big Screen Bible</title>
  <desc id="brandDesc">An open Bible beneath a screen beside the words Big Screen Bible.</desc>
  <defs>
    <linearGradient id="brandGold" x1="44" y1="28" x2="272" y2="150" gradientUnits="userSpaceOnUse">
      <stop offset="0" stop-color="#d49a24"/>
      <stop offset="0.48" stop-color="#aa6c08"/>
      <stop offset="1" stop-color="#e0ad35"/>
    </linearGradient>
    <linearGradient id="brandInk" x1="388" y1="38" x2="734" y2="98" gradientUnits="userSpaceOnUse">
      <stop offset="0" stop-color="#111922"/>
      <stop offset="1" stop-color="#090d12"/>
    </linearGradient>
  </defs>

  <g fill="none" stroke="url(#brandGold)" stroke-linecap="round" stroke-linejoin="round">
    <path d="M32 30h216a12 12 0 0 1 12 12v102" stroke-width="8"/>
    <path d="M32 144V42a12 12 0 0 1 12-12" stroke-width="8"/>
    <path d="M54 106c39-8 78-8 104 12v70c-34-22-78-24-126-13z" fill="url(#brandGold)" stroke-width="0"/>
    <path d="M238 106c-39-8-78-8-104 12v70c34-22 78-24 126-13z" fill="url(#brandGold)" stroke-width="0"/>
    <path d="M54 106c39-8 78-8 104 12 26-20 65-20 104-12" stroke-width="7"/>
    <path d="M32 174c48-11 92-9 126 14 34-23 78-25 126-14" stroke-width="7"/>
    <path d="M158 118v70" stroke-width="8"/>
  </g>

  <path d="M314 30v118" stroke="#d8d2c8" stroke-width="3"/>

  <text x="362" y="96" fill="url(#brandInk)" font-family="Libre Baskerville, Georgia, serif" font-size="72" font-weight="700">Big Screen</text>
  <text x="364" y="148" fill="#b4740c" font-family="Inter, Arial, sans-serif" font-size="36" font-weight="800" letter-spacing="18">BIBLE</text>
</svg>
